<?xml version="1.0"?>
<svg xmlns="http://www.w3.org/2000/svg" width="135" height="40" viewBox="0 0 135 40" fill="none">
<path d="M0 5C0 2.23858 2.23858 0 5 0H130C132.761 0 135 2.23858 135 5V35C135 37.7614 132.761 40 130 40H5C2.23857 40 0 37.7614 0 35V5Z" fill="black"/>
<path fill-rule="evenodd" clip-rule="evenodd" d="M29.3508 8.16754C29.4555 9.5288 29.0366 10.7853 28.1989 11.8325C27.3612 12.8796 26.2094 13.5079 24.8481 13.5079C24.7434 12.1466 25.1623 10.8901 26 9.94765C26.8377 8.90053 28.0942 8.27225 29.3508 8.16754ZM33.644 15.9162C32.0734 16.8586 31.1309 18.534 31.1309 20.3141C31.1309 22.3037 32.2828 24.1885 34.1676 24.8168C33.8535 25.9686 33.3299 27.1204 32.5969 28.0628C31.6545 29.5288 30.7121 30.8901 29.1414 30.8901C28.3806 30.8901 27.8901 30.669 27.3842 30.441C26.8456 30.1982 26.2897 29.9476 25.3718 29.9476C24.3973 29.9476 23.7994 30.1987 23.2172 30.4431C22.736 30.6452 22.2656 30.8427 21.6021 30.8901C20.1362 30.8901 18.9843 29.3194 18.0419 27.9581C16.0524 25.1309 14.5864 19.8953 16.576 16.4398C17.5184 14.7644 19.2985 13.7173 21.288 13.6126C22.1016 13.6126 22.883 13.9351 23.5784 14.2222C24.136 14.4523 24.6383 14.6597 25.0576 14.6597C25.4252 14.6597 25.9043 14.4685 26.4576 14.2478C27.3229 13.9025 28.3697 13.4848 29.4556 13.6126C31.1309 13.7173 32.7016 14.555 33.644 15.9162Z" fill="white"/>
<path d="M83.3821 29.4241C81.602 29.4241 80.3455 28.5864 80.2408 27.3299H78.4607C78.5654 29.7382 80.4502 31.2042 83.3821 31.2042C86.4188 31.2042 88.4083 29.6335 88.4083 27.2251C88.4083 25.3403 87.2565 24.2932 84.6387 23.6649L83.1727 23.3508C81.4973 22.9319 80.7643 22.4084 80.7643 21.466C80.7643 20.3141 81.8115 19.4764 83.3821 19.4764C84.9528 19.4764 86 20.3141 86.1047 21.5707H88.0942C87.9895 19.3717 86.1047 17.8011 83.3821 17.8011C80.6596 17.8011 78.6701 19.3717 78.6701 21.5707C78.6701 23.3508 79.7172 24.3979 82.1256 25.0262L83.801 25.445C85.4764 25.8639 86.2094 26.3874 86.2094 27.4346C86.2094 28.5864 85.0575 29.4241 83.3821 29.4241Z" fill="white"/>
<path fill-rule="evenodd" clip-rule="evenodd" d="M44.534 27.4346H49.4554L50.712 30.9948H52.8062L48.0942 18.0105H45.9999L41.2879 30.9948H43.3821L44.534 27.4346ZM49.0366 25.8639H45.0575L46.9424 20.1047H47.0471L49.0366 25.8639Z" fill="white"/>
<path fill-rule="evenodd" clip-rule="evenodd" d="M58.9843 31.0995C61.3927 31.0995 62.9634 29.2147 62.9634 26.2827C62.9634 23.3508 61.288 21.3613 58.9843 21.466C57.7278 21.466 56.5759 22.0942 55.9477 23.1414V21.5707H54.0628V34.1361H56.0524V29.4241C56.5759 30.4712 57.7278 31.2042 58.9843 31.0995ZM58.356 23.1414C59.9267 23.1414 60.8691 24.3979 60.8691 26.2827C60.8691 28.1675 59.9267 29.4241 58.356 29.4241C56.8901 29.4241 55.843 28.1675 55.843 26.2827C55.843 24.3979 56.8901 23.1414 58.356 23.1414Z" fill="white"/>
<path fill-rule="evenodd" clip-rule="evenodd" d="M73.3299 26.2827C73.3299 29.2147 71.7592 31.0995 69.3508 31.0995C68.0943 31.2042 66.9425 30.4712 66.4189 29.4241V34.1361H64.4294V21.5707H66.3142V23.1414C66.9425 22.0942 68.0943 21.466 69.3508 21.466C71.7592 21.3613 73.3299 23.3508 73.3299 26.2827ZM71.3404 26.2827C71.3404 24.3979 70.398 23.1414 68.8273 23.1414C67.3613 23.1414 66.3142 24.3979 66.3142 26.2827C66.3142 28.1675 67.3613 29.4241 68.8273 29.4241C70.398 29.4241 71.3404 28.1675 71.3404 26.2827Z" fill="white"/>
<path d="M92.3875 19.3717V21.466H94.1676V23.0367H92.3875V28.2723C92.3875 29.11 92.7016 29.4241 93.5393 29.4241H94.1676V30.9948C93.8534 31.0995 93.4346 31.0995 93.1204 31.0995C91.2356 31.0995 90.5026 30.3665 90.5026 28.5864V23.1414H89.1414V21.5707H90.5026V19.3717H92.3875Z" fill="white"/>
<path fill-rule="evenodd" clip-rule="evenodd" d="M99.822 21.466C97.0995 21.466 95.3194 23.3508 95.3194 26.2827C95.3194 29.2147 96.9948 31.0995 99.822 31.0995C102.545 31.0995 104.325 29.3194 104.325 26.2827C104.325 23.3508 102.545 21.466 99.822 21.466ZM99.822 23.0367C101.393 23.0367 102.335 24.1885 102.335 26.2827C102.335 28.2723 101.393 29.5288 99.822 29.5288C98.2514 29.5288 97.309 28.377 97.309 26.2827C97.309 24.1885 98.2514 23.0367 99.822 23.0367Z" fill="white"/>
<path d="M105.895 21.466H107.78V23.1414C107.99 22.0942 109.037 21.3613 110.084 21.466C110.293 21.466 110.503 21.466 110.712 21.5707V23.3508C110.398 23.2461 110.084 23.2461 109.874 23.2461C108.827 23.2461 107.885 24.0838 107.885 25.1309V31.0995H105.895V21.466Z" fill="white"/>
<path fill-rule="evenodd" clip-rule="evenodd" d="M115.634 31.0995C117.728 31.0995 119.508 29.8429 119.717 28.1675H117.832C117.518 29.11 116.576 29.6335 115.634 29.5288H115.319C113.958 29.3194 113.016 28.1675 113.12 26.8063V26.7016H119.822V26.0733C119.822 23.1414 118.147 21.3613 115.529 21.3613C112.806 21.3613 111.131 23.3508 111.131 26.2827C111.131 29.2147 112.911 31.0995 115.634 31.0995ZM117.832 25.3403H113.12C113.12 23.9791 114.168 22.9319 115.424 22.9319H115.634C116.89 23.0367 117.937 24.0838 117.832 25.3403Z" fill="white"/>
<path d="M67.9896 7.85341H67.0472V14.4503H67.9896V7.85341Z" fill="white"/>
<path fill-rule="evenodd" clip-rule="evenodd" d="M44.7435 8.16755C46.3142 8.06283 47.5707 9.21467 47.6754 10.6806V11.2042C47.6754 13.1937 46.6283 14.3456 44.7435 14.3456H42.4398V8.06283H44.7435V8.16755ZM43.4869 13.6126H44.6388C45.6859 13.7173 46.6283 12.8796 46.733 11.7278V11.3089C46.8377 10.2618 46.1047 9.21467 45.0576 9.10995H43.4869V13.6126Z" fill="white"/>
<path fill-rule="evenodd" clip-rule="evenodd" d="M48.8272 12.0419C48.7225 10.7853 49.5602 9.73823 50.8168 9.63352C52.0733 9.5288 53.1204 10.3665 53.2251 11.623V12.0419C53.3298 13.2984 52.4921 14.3456 51.2356 14.4503C49.9791 14.555 48.9319 13.7173 48.8272 12.4607V12.0419ZM52.2827 12.0419C52.2827 10.9948 51.8639 10.4712 51.0262 10.4712C50.1885 10.4712 49.7696 11.0995 49.7696 12.0419C49.7696 13.089 50.1885 13.7173 51.0262 13.7173C51.8639 13.7173 52.2827 13.089 52.2827 12.0419Z" fill="white"/>
<path d="M58.2513 14.4503H59.1937L60.6597 9.73823H59.7173L58.8796 13.2984H58.7749L57.8325 9.73823H56.8901L55.9476 13.2984H55.8429L55.0052 9.73823H54.0628L55.3194 14.4503H56.2618L57.2042 10.9948H57.3089L58.2513 14.4503Z" fill="white"/>
<path d="M61.602 9.73823H62.5445V10.4712H62.6492C62.8586 9.94765 63.4869 9.63352 64.0104 9.63352C64.8481 9.5288 65.5811 10.1571 65.6858 11.0995V14.4503H64.7434V11.623C64.7434 10.8901 64.4293 10.4712 63.6963 10.4712C63.068 10.4712 62.5445 10.8901 62.5445 11.5183V14.4503H61.602V9.73823Z" fill="white"/>
<path fill-rule="evenodd" clip-rule="evenodd" d="M69.2461 12.0419C69.1414 10.7853 69.9791 9.73823 71.2356 9.63352C72.4921 9.5288 73.5393 10.3665 73.644 11.623V12.0419C73.7487 13.2984 72.911 14.3456 71.6545 14.4503C70.3979 14.555 69.3508 13.7173 69.2461 12.4607V12.0419ZM72.8063 12.0419C72.8063 10.9948 72.3874 10.4712 71.5497 10.4712C70.712 10.4712 70.2932 11.0995 70.2932 12.0419C70.2932 13.089 70.712 13.7173 71.5497 13.7173C72.2827 13.7173 72.8063 13.089 72.8063 12.0419Z" fill="white"/>
<path fill-rule="evenodd" clip-rule="evenodd" d="M76.4712 11.7278C75.3193 11.7278 74.6911 12.2513 74.6911 13.089C74.6911 13.1937 74.6911 13.1937 74.5864 13.2984C74.6911 14.0314 75.4241 14.6597 76.157 14.555C76.7853 14.555 77.3089 14.3456 77.623 13.822H77.7277V14.4503H78.6701V11.2042C78.6701 10.2618 77.9371 9.63352 76.7853 9.63352C75.7382 9.63352 75.0052 10.1571 74.9005 10.9948H75.8429C75.9476 10.6806 76.2618 10.4712 76.7853 10.4712C77.4136 10.4712 77.7277 10.6806 77.7277 11.2042V11.623L76.4712 11.7278ZM77.7277 12.2513V12.6702C77.623 13.4031 77.0994 13.822 76.4712 13.6126C76.0523 13.6126 75.6335 13.4031 75.6335 12.9843C75.6335 12.6702 75.9476 12.356 76.5759 12.356L77.7277 12.2513Z" fill="white"/>
<path fill-rule="evenodd" clip-rule="evenodd" d="M79.822 12.0419C79.822 10.5759 80.5549 9.63352 81.8115 9.63352C82.4398 9.63352 82.9633 9.94765 83.2775 10.4712H83.3822V7.85341H84.3246V14.4503H83.3822V13.7173H83.2775C82.9633 14.2408 82.4398 14.555 81.8115 14.555C80.6597 14.555 79.822 13.6126 79.822 12.0419ZM80.8691 12.0419C80.8691 13.089 81.3926 13.6126 82.1256 13.6126C82.8586 13.6126 83.3822 12.9843 83.3822 12.0419C83.3822 11.0995 82.8586 10.4712 82.1256 10.4712C81.2879 10.4712 80.8691 11.0995 80.8691 12.0419Z" fill="white"/>
<path fill-rule="evenodd" clip-rule="evenodd" d="M90.0838 9.63352C88.8272 9.73823 87.9895 10.7853 88.0942 12.0419V12.4607C88.199 13.7173 89.2461 14.555 90.5026 14.4503C91.7592 14.3456 92.5969 13.2984 92.4922 12.0419V11.623C92.3874 10.3665 91.3403 9.5288 90.0838 9.63352ZM90.3979 10.4712C91.2356 10.4712 91.6545 10.9948 91.6545 12.0419C91.6545 13.089 91.1309 13.7173 90.3979 13.7173C89.5602 13.7173 89.1414 13.089 89.1414 12.0419C89.1414 11.0995 89.5602 10.4712 90.3979 10.4712Z" fill="white"/>
<path d="M93.8534 9.73823H94.7958V10.4712H94.9005C95.11 9.94765 95.7382 9.63352 96.2618 9.63352C97.0995 9.5288 97.8325 10.1571 97.9372 11.0995V14.4503H96.9948V11.623C96.9948 10.8901 96.6806 10.4712 95.9477 10.4712C95.3194 10.4712 94.7958 10.8901 94.7958 11.5183V14.4503H93.8534V9.73823Z" fill="white"/>
<path d="M103.068 9.73823V8.58639H102.021V9.84294H101.288V10.5759H102.021V13.1937C102.021 14.1361 102.44 14.4503 103.487 14.4503H104.01V13.7173H103.696C103.277 13.7173 103.068 13.5079 103.068 12.9843V10.5759H104.115V9.73823H103.068Z" fill="white"/>
<path d="M105.372 7.85341H106.314V10.4712H106.419C106.628 9.94765 107.257 9.5288 107.885 9.63352C108.723 9.63352 109.456 10.2618 109.56 11.0995V14.4503H108.618V11.623C108.618 10.8901 108.304 10.4712 107.571 10.4712C106.942 10.4712 106.419 10.8901 106.419 11.5183V14.4503H105.476L105.372 7.85341Z" fill="white"/>
<path fill-rule="evenodd" clip-rule="evenodd" d="M112.806 14.555C113.749 14.6597 114.691 14.0314 114.901 13.1937L113.958 13.2984C113.749 13.6126 113.225 13.9267 112.806 13.822H112.702C111.969 13.7173 111.445 13.1937 111.55 12.4607H114.901V12.1466C114.901 10.6806 114.168 9.73823 112.806 9.73823H112.492C111.236 9.84294 110.398 10.9948 110.607 12.1466V12.4607C110.607 13.6126 111.654 14.555 112.806 14.555ZM113.958 11.623H111.55C111.55 10.9948 112.178 10.4712 112.806 10.3665H112.911C113.539 10.4712 113.958 10.9948 113.958 11.623Z" fill="white"/>
</svg>
